<?xml version="1.0" standalone="no"?><!DOCTYPE svg PUBLIC "-//W3C//DTD SVG 1.1//EN" "http://www.w3.org/Graphics/SVG/1.1/DTD/svg11.dtd"><svg t="1502860139084" class="icon" style="" viewBox="0 0 1024 1024" version="1.1" xmlns="http://www.w3.org/2000/svg" p-id="7596" xmlns:xlink="http://www.w3.org/1999/xlink" width="200" height="200"><defs><style type="text/css"></style></defs><path d="M818.943764 735.655849c-4.701069 0.748037-9.471722 1.127683-14.183024 1.127683-40.948621-0.001023-75.801407-27.323299-86.130659-66.166979l-45.797046-0.055259c11.251252 64.433498 66.389036 110.99393 131.925658 110.99393 0 0 0.002047 0 0.00307 0 7.059789 0 14.202467-0.565888 21.222347-1.684362 35.374672-5.631254 66.440202-24.703635 87.470167-53.701063 21.032012-28.997428 29.511127-64.449871 23.877827-99.824543-10.42749-65.494667-66.067718-113.032356-132.298142-113.032356-7.064906 0-14.205537 0.567935-21.227464 1.686409-35.374672 5.633301-66.438155 24.703635-87.470167 53.701063-10.026354 13.823843-17.163915 29.124318-21.315468 45.174875 2.422166-0.298805 4.851495-0.600681 7.239891-0.887206l0.778736-0.093121 0.778736 0 38.680974 0c2.639107-6.260587 5.992481-12.271488 10.081613-17.907858 14.008039-19.315928 34.701336-32.020274 58.266032-35.772738 4.701069-0.748037 9.473769-1.127683 14.186094-1.127683 44.090171 0 81.133855 31.668257 88.083128 75.30101 3.750417 23.564695-1.898233 47.179532-15.906272 66.49546C863.201757 719.199039 842.508459 731.903386 818.943764 735.655849z" p-id="7597"></path><path d="M427.367461 335.74574l-25.527396 0c-6.703679 0-13.05841 2.984984-17.339924 8.143471l-7.413853 8.93551c-23.396873 2.803859-41.795918 7.142677-55.098899 11.140735l-33.111119 76.001975c19.686365 6.359848 35.641755 21.88852 42.092677 42.393529l43.23571 137.426953c13.44829 42.747593 53.078893 71.824839 97.892541 71.824839l131.085524 0c12.474103-20.436448 18.406209-31.425733 61.387116-34.093493l6.630001 0.008186 44.952818 0.054235 12.94994 0.016373c0.083911 0.62217 0.151449 1.243317 0.25071 1.865487 0.25071 1.577938 0.61296 3.110851 0.954745 4.650927 0.491187 2.215458 1.074472 4.386914 1.746784 6.51846 9.91379 31.457456 38.876426 53.305043 72.763211 53.305043 4.02978 0 8.101515-0.323365 12.107759-0.960885 20.179598-3.213181 37.899168-14.090926 49.89334-30.630624 11.996219-16.540721 16.83441-36.763298 13.620206-56.94085-5.948479-37.359886-37.686321-64.475454-75.465762-64.475454-4.027733 0-8.101515 0.323365-12.105712 0.960885-20.177552 3.213181-37.897122 14.090926-49.894364 30.632671-2.405793 3.317559-4.50971 6.78759-6.332219 10.371208-1.085728 2.13257-2.071172 4.306072-2.945075 6.516414-0.847298 2.14178-1.601474 4.313236-2.24718 6.515391l-13.290701 0-34.338063 0-0.00614 0-0.002047 0.001023c-3.799536 0.455371-7.6574 0.933255-11.541871 1.414209-20.819165 2.577708-42.801828 5.260817-65.50797 5.260817-38.562271 0-79.175247-7.737218-119.562073-36.871769-76.959789-55.517431-97.716532-154.643056-98.057293-156.290579l-0.016373-0.033769 0.00921 0c-0.001023-0.004093-0.00921-0.042979-0.00921-0.042979 0.00614 0.013303 0.01842 0.029676 0.023536 0.042979l143.472646 0 11.001565 11.678994c17.929348 19.034519 42.919509 29.826306 69.068052 29.826306l29.590945 0 48.291866 0 11.420097 0 33.875528 0c5.730515-2.056845 11.594059-3.795443 17.573237-5.184069 11.530614-2.675946 23.470551-4.091178 35.640732-4.091178l36.481889 0 27.399023 0 68.017116 0c26.548656 0 50.819432-14.999622 62.691831-38.745443l3.433192-6.865361L935.602717 426.025906l-10.740622 0-10.254551 0c43.38409-32.060183 62.959937-70.236668 62.959937-70.236668-13.491269-9.957793-30.981618-13.865799-50.953486-13.866822-33.053814-0.002047-72.916706 10.69969-112.786763 22.395056-60.604286 17.776875-134.989437 18.243503-142.631488 18.243503-0.423649 0-0.641613-0.002047-0.641613-0.002047 21.047362 12.296047 59.09798 16.075117 97.895611 16.075117 61.813834 0 125.541251-9.586332 125.541251-9.586332-48.758494 19.079544-96.567359 26.244734-142.235468 26.244734-14.986319 0-29.739325-0.771573-44.222177-2.146896-15.069207-1.925862-50.29857-9.623171-77.061097-40.301891 0 0 62.240553-4.51278 97.124038-7.370875 9.934257-0.814552 17.579377-9.100262 17.579377-19.066241 0 0-14.699794-0.630357-35.162848-0.630357-32.746822 0-80.260975 1.613754-105.977683 10.012028-27.502377 8.980535-52.496631 12.723789-71.641667 12.723789-9.94449 0-18.310018-1.010003-24.628934-2.821255l0 0c-20.934798-6.202259-39.896662-11.2973-56.526411-13.929244l-6.531763-7.872295C440.426895 338.730725 434.07114 335.74574 427.367461 335.74574zM762.41019 619.410312c0.416486-0.629333 0.791016-1.279133 1.237177-1.893116 1.186012-1.635243 2.479471-3.157923 3.826142-4.622274 7.728008-8.404414 17.962094-13.95892 29.408797-15.782451 2.682086-0.426719 5.40408-0.642636 8.091282-0.642636 25.15082 0 46.281069 18.063401 50.245358 42.951231 2.139733 13.44215-1.081635 26.912953-9.072633 37.930891-7.992021 11.017938-19.795858 18.263969-33.236985 20.405749-2.682086 0.425695-5.40408 0.642636-8.092305 0.642636-19.645432 0-36.796044-11.048637-45.270043-27.733645-1.064238-2.094708-2.020006-4.256954-2.796696-6.519484-0.721431-2.101871-1.277086-4.287653-1.729387-6.517437l46.708811 0.056282c0.308015 0.017396 0.615007 0.026606 0.918929 0.026606 8.708336 0 15.858176-7.068999 15.858176-15.892969 0-8.776897-7.115048-15.891945-15.891945-15.891945l-43.915186 0C759.753687 623.677499 761.02054 621.514229 762.41019 619.410312z" p-id="7598"></path><path d="M170.890089 781.555226l0.002047 0c7.061836 0 14.202467-0.565888 21.224394-1.684362 35.374672-5.633301 66.438155-24.703635 87.470167-53.702086 21.029966-28.997428 29.509081-64.447824 23.87578-99.822496-6.02318-37.829584-27.14729-69.642127-56.665581-89.790002l-18.393929 42.219567c16.023952 13.406335 27.317159 32.460296 30.844495 54.610782 7.745405 48.644907-25.527396 94.523817-74.172303 102.269221-4.701069 0.748037-9.472745 1.127683-14.185071 1.127683-44.092217-0.002047-81.135902-31.66928-88.084151-75.302033-3.751441-23.564695 1.898233-47.179532 15.906272-66.49546 14.009062-19.315928 34.701336-32.020274 58.266032-35.772738 4.701069-0.748037 9.472745-1.127683 14.187117-1.127683 3.27151 0 6.497994 0.194428 9.682523 0.535189l18.450211-42.349527c-9.084912-1.922792-18.491143-2.959402-28.131711-2.959402-7.062859 0-14.205537 0.567935-21.227464 1.686409-35.374672 5.633301-66.438155 24.703635-87.469144 53.701063-21.032012 28.997428-29.511127 64.447824-23.877827 99.822496C49.018414 734.017536 104.658641 781.555226 170.890089 781.555226z" p-id="7599"></path><path d="M163.013701 597.111446c0.372483-0.059352 0.74906-0.082888 1.12359-0.134053l11.263531-25.855878c-1.428535-0.078795-2.848884-0.192382-4.296863-0.192382-4.027733 0-8.101515 0.323365-12.105712 0.960885-20.179598 3.213181-37.899168 14.090926-49.895387 30.632671-11.996219 16.539698-16.833387 36.762275-13.620206 56.94085 5.949502 37.358863 37.687344 64.473407 75.465762 64.473407 4.027733 0 8.101515-0.323365 12.105712-0.960885 20.179598-3.213181 37.899168-14.090926 49.895387-30.630624 11.996219-16.540721 16.833387-36.763298 13.620206-56.94085-2.803859-17.613146-11.388375-32.896224-23.587208-44.188408l-11.167341 25.632797c4.809539 6.447852 8.185426 14.098089 9.534144 22.571065 2.139733 13.44215-1.081635 26.912953-9.073656 37.930891-7.990998 11.017938-19.794835 18.263969-33.236985 20.405749-2.682086 0.425695-5.40408 0.642636-8.091282 0.642636-25.15082 0-46.281069-18.063401-50.245358-42.951231-2.139733-13.44215 1.081635-26.91193 9.073656-37.930891C137.76976 606.498234 149.573597 599.252203 163.013701 597.111446z" p-id="7600"></path><path d="M204.594725 504.111333l10.357905-23.775496c-22.843264-5.982248-46.818305-7.345292-70.362534-3.741207-14.361079 2.198062-23.290449 16.815991-18.838044 30.644951C151.516856 498.94466 178.818665 498.094292 204.594725 504.111333z" p-id="7601"></path><path d="M308.986283 595.729983l0.01535-0.00614c13.631462-5.092995 19.516496-21.182438 12.325723-33.83255-12.104689-21.296025-28.659737-39.817867-48.790216-54.4184-3.298116-2.39249-6.693446-4.611018-10.130731-6.748704l-10.345626 23.747867c1.834788 1.207501 3.669576 2.416026 5.455245 3.711532C281.057187 545.258475 298.855552 568.615439 308.986283 595.729983z" p-id="7602"></path><path d="M251.582899 314.306452c-17.056468 53.726645-66.518996 67.372433-66.518996 67.372433 11.357675 20.922519 39.457664 34.292014 55.259558 40.423665l54.379515-124.820843c0.401136-0.925069 0.859577-1.812275 1.282203-2.724041-14.243399-14.001899-33.506115-22.038946-53.782927-22.038946l-66.518996 0 0 79.311347C221.73408 351.830067 251.582899 314.306452 251.582899 314.306452z" p-id="7603"></path><path d="M259.122619 475.634768 239.683894 456.197066 234.649228 467.754287 254.086929 487.191988Z" p-id="7604"></path><path d="M240.773715 517.752004l8.420787-19.329231-9.621125-9.621125-9.816576-9.816576-2.224668 5.106298-10.270924 23.574928-5.208629 11.954263-18.039865 41.410132-5.232165 12.009522-10.44898 23.984251-19.054985 43.73713c-2.826372 6.487761 0.151449 14.036691 6.64535 16.848737 1.655709 0.716314 3.378957 1.056052 5.075599 1.056052 4.935406 0 9.637498-2.873444 11.734252-7.686053l19.216667-44.10859 10.400884-23.87578 5.217838-11.976776 18.011212-41.342594L240.773715 517.752004z" p-id="7605"></path><path d="M264.015046 464.403982 269.049712 452.846762 266.040169 449.836195 259.524778 443.320804 259.132852 442.928878 254.175957 437.971983 249.612011 433.408037 244.577345 444.965258 249.167896 449.555809 249.448282 449.836195Z" p-id="7606"></path><path d="M259.043824 426.715615l4.955872 4.955872 4.955872 4.955872 0.187265 0.187265 4.800329 4.800329 1.912559-4.391007 29.411867-67.51058 3.63069-8.334829 3.508917-8.05342 17.733896-40.705074c10.220782-23.611767 31.800263-40.362266 57.208956-44.408419l37.537941-5.977132c13.953803-2.221598 23.464411-15.335267 21.242813-29.28907l-62.804395 10.000771c-34.233686 5.451152-62.893422 27.697829-76.664054 59.511395l-52.156894 119.719662L259.043824 426.715615z" p-id="7607"></path><path d="M690.735777 497.200946l-9.790994 0-8.996908 0-35.485189 0-41.950438 0c-26.502607 0-51.79669-11.083429-69.76083-30.569226l-4.856611-5.26798L415.024341 461.363739l0.005117 0.004093c0 0 19.445888 49.002041 46.685275 76.845179 28.113291 28.736485 65.783239 46.12962 105.984846 46.12962l69.167313 0 7.314593-17.09433c0.163729-0.382717 0.343831-0.754177 0.51063-1.134847 3.731998-8.53642 8.15268-16.630772 13.20065-24.214495 11.967566-17.981537 27.400047-33.122375 45.164642-44.696991L690.735777 497.201969z" p-id="7608"></path></svg>