<?xml version="1.0" standalone="no"?><!DOCTYPE svg PUBLIC "-//W3C//DTD SVG 1.1//EN" "http://www.w3.org/Graphics/SVG/1.1/DTD/svg11.dtd"><svg t="1502862010270" class="icon" style="" viewBox="0 0 1836 1024" version="1.1" xmlns="http://www.w3.org/2000/svg" p-id="7997" xmlns:xlink="http://www.w3.org/1999/xlink" width="358.59375" height="200"><defs><style type="text/css"></style></defs><path d="M1373.191 394.077s-58.215-175.773-315.747-199.317c0 0-351.546-23.383-409.6 70.632 0 0-139.974 152.229-128.847 280.915 0 0 0 105.303-34.51 199.317 0 0-94.176 233.988 186.9 221.571 280.915-11.127 561.829-94.014 643.588-139.812 0 0 105.141-59.505 58.215-433.305zM569.794 442.455c12.417 22.254 398.634-24.834 397.344 59.344 0 0 58.215 129.975-222.861 164.646 0 0-193.028 45.798-210.283 39.509 0 0-23.544-134.813 35.8-263.499zM537.704 801.419s-29.833-18.706 0-47.088c0 0 220.281 17.255 440.562-70.632 0 0 0 94.176-440.562 117.72zM1331.102 764.168l-47.088 45.798c164.646-725.347-610.207-502.486-610.207-502.486-58.215-23.544 11.127-47.088 11.127-47.088 868.868-210.444 646.168 503.776 646.168 503.776z" p-id="7998" fill="#1296db"></path></svg>