<?xml version="1.0" standalone="no"?><!DOCTYPE svg PUBLIC "-//W3C//DTD SVG 1.1//EN" "http://www.w3.org/Graphics/SVG/1.1/DTD/svg11.dtd"><svg t="1502862152123" class="icon" style="" viewBox="0 0 1024 1024" version="1.1" xmlns="http://www.w3.org/2000/svg" p-id="8692" xmlns:xlink="http://www.w3.org/1999/xlink" width="200" height="200"><defs><style type="text/css"></style></defs><path d="M511.704 64.551c-246.973 0-447.184 200.21-447.184 447.184 0 246.972 200.21 447.184 447.184 447.184s447.184-200.212 447.184-447.184c0-246.973-200.21-447.184-447.184-447.184m179.62 401.488v65.186H581.23v88.594h109.787l-0.16 61.436-110.863 0.067-0.038 112.205H450.037l0.035-113.611h-116.51v-58.101H449.48v-88.336H333.486v-64.572H450.96l-141.485-237.08 87.813 6.134s83.774 134.207 118.816 189.316c33.834-54.711 114.717-189.112 114.717-189.112l84.202-5.78L578.99 466.04h112.334z" p-id="8693"></path></svg>